<?xml version="1.0" ?><svg id="Search" style="enable-background:new 0 0 512 512;" version="1.1" viewBox="0 0 512 512" xml:space="preserve" xmlns="http://www.w3.org/2000/svg" xmlns:xlink="http://www.w3.org/1999/xlink"><path d="M410.16177,101.8385c-50.45132-50.45134-132.54184-50.45134-182.99316,0  c-46.40671,46.40746-50.12279,119.58133-11.15648,170.28018l-9.43048,9.43045c-6.27171-2.98318-14.01067-1.90155-19.19473,3.28177  L72.23956,399.9798c-5.31307,5.31305-8.23928,12.37692-8.23928,19.89084s2.92621,14.57776,8.23853,19.89008  C77.55189,445.07379,84.61574,448,92.12965,448s14.57776-2.92621,19.89084-8.23853l115.14813-115.14813  c5.18405-5.18481,6.26572-12.92377,3.28175-19.19473l9.43047-9.43045c23.14034,17.78525,50.96141,26.6824,78.78398,26.6824  c33.13565,0,66.27127-12.61246,91.49695-37.83813C460.61237,234.38033,460.61237,152.29059,410.16177,101.8385z   M100.08614,419.87064l99.23515-99.23517l7.95573,7.95575l-99.23515,99.23514L100.08614,419.87064z M92.12965,411.91412  l-7.95499-7.95499l99.23515-99.2359l7.95575,7.95572L92.12965,411.91412z M80.1953,431.80423  c-3.18724-3.18726-4.94327-7.42542-4.94327-11.93359c0-2.55865,0.58434-5.0228,1.65626-7.26489l22.48624,22.48624  c-2.2421,1.07193-4.70624,1.65628-7.26488,1.65628C87.62145,436.74826,83.38329,434.99222,80.1953,431.80423z M219.21214,316.6561  l-3.97787,3.97787l-23.86795-23.86795l3.97786-3.97787c1.09668-1.09744,2.53764-1.64502,3.97786-1.64502  c1.44098,0,2.88196,0.54761,3.97862,1.64502l15.91222,15.91223C221.40622,310.89371,221.40622,314.46277,219.21214,316.6561z   M223.19075,296.76526l-7.95499-7.95499l8.04724-8.04724c1.26245,1.37643,2.55264,2.73642,3.8856,4.06937  c1.33295,1.33292,2.69292,2.62317,4.06938,3.88559L223.19075,296.76526z M402.20453,276.87518  c-46.06314,46.06464-121.01627,46.06464-167.07944,0c-46.06465-46.0639-46.06465-121.01555,0-167.07945  c23.03159-23.03233,53.28601-34.54886,83.53973-34.54886s60.50815,11.51653,83.53973,34.54886  C448.2692,155.85963,448.2692,230.81128,402.20453,276.87518z M425.55643,193.33545c0,58.9404-47.9512,106.8916-106.8916,106.8916  s-106.8916-47.9512-106.8916-106.8916c0-24.52504,8.08551-47.59563,23.38263-66.71761  c1.94055-2.42738,5.48111-2.82118,7.90698-0.87914c2.42662,1.94055,2.82043,5.48111,0.87914,7.90698  c-13.68362,17.10565-20.91699,37.7466-20.91699,59.68976c0,52.73619,42.90364,95.63983,95.63985,95.63983  s95.63983-42.90364,95.63983-95.63983S371.40103,97.6956,318.66483,97.6956c-21.94315,0-42.58411,7.23338-59.68976,20.917  c-2.42511,1.94131-5.96568,1.54825-7.90698-0.87914c-1.9413-2.42587-1.5475-5.96642,0.87914-7.90697  c19.12196-15.29713,42.19255-23.38263,66.71761-23.38263C377.60522,86.44386,425.55643,134.39505,425.55643,193.33545z"/></svg>